<svg width="194" height="195" viewBox="0 0 194 195" fill="none" xmlns="http://www.w3.org/2000/svg">
<g filter="url(#filter0_d_14_2)">
<ellipse cx="94.5" cy="95.5" rx="57.5" ry="75.5" fill="#ECECEC"/>
<path d="M151.5 95.5C151.5 116.249 145.094 135.015 134.761 148.584C124.428 162.151 110.189 170.5 94.5 170.5C78.8112 170.5 64.5722 162.151 54.2391 148.584C43.9058 135.015 37.5 116.249 37.5 95.5C37.5 74.7508 43.9058 55.9846 54.2391 42.4164C64.5722 28.8486 78.8112 20.5 94.5 20.5C110.189 20.5 124.428 28.8486 134.761 42.4164C145.094 55.9846 151.5 74.7508 151.5 95.5Z" stroke="black"/>
</g>
<g filter="url(#filter1_i_14_2)">
<ellipse cx="133.586" cy="96.0624" rx="18.5" ry="27.5" transform="rotate(-9.02835 133.586 96.0624)" fill="#488E47"/>
</g>
<path d="M151.363 93.2378C152.541 100.653 151.582 107.665 149.104 113.004C146.624 118.345 142.654 121.96 137.823 122.728C132.992 123.495 128.098 121.289 124.084 116.979C120.073 112.672 116.987 106.302 115.809 98.887C114.631 91.472 115.591 84.4596 118.069 79.1212C120.549 73.7793 124.518 70.1645 129.349 69.3969C134.18 68.6293 139.075 70.8356 143.088 75.1458C147.099 79.4532 150.185 85.8227 151.363 93.2378Z" stroke="black"/>
<g filter="url(#filter2_i_14_2)">
<ellipse cx="60.3449" cy="72.0767" rx="19.5" ry="27.5" transform="rotate(8.48673 60.3449 72.0767)" fill="#488E47"/>
</g>
<path d="M79.1369 74.8807C78.0297 82.3011 74.8969 88.6798 70.752 92.9979C66.6062 97.3171 61.4833 99.5455 56.3603 98.781C51.2372 98.0166 46.988 94.3897 44.2837 89.0484C41.58 83.7084 40.4458 76.693 41.553 69.2727C42.6602 61.8523 45.793 55.4736 49.9378 51.1555C54.0836 46.8363 59.2066 44.6079 64.3296 45.3723C69.4526 46.1368 73.7019 49.7637 76.4062 55.105C79.1099 60.445 80.2441 67.4604 79.1369 74.8807Z" stroke="black"/>
<g filter="url(#filter3_i_14_2)">
<ellipse cx="80.5295" cy="144.338" rx="22.1987" ry="27.5" transform="rotate(-63.3956 80.5295 144.338)" fill="#488E47"/>
</g>
<path d="M90.2467 124.936C103.674 131.662 109.995 145.799 104.671 156.429C99.3464 167.059 84.2392 170.464 70.8122 163.739C57.3852 157.014 51.0639 142.877 56.3882 132.246C61.7125 121.616 76.8197 118.211 90.2467 124.936Z" stroke="black"/>
<defs>
<filter id="filter0_d_14_2" x="37" y="17" width="124" height="159" filterUnits="userSpaceOnUse" color-interpolation-filters="sRGB">
<feFlood flood-opacity="0" result="BackgroundImageFix"/>
<feColorMatrix in="SourceAlpha" type="matrix" values="0 0 0 0 0 0 0 0 0 0 0 0 0 0 0 0 0 0 127 0" result="hardAlpha"/>
<feOffset dx="5" dy="1"/>
<feGaussianBlur stdDeviation="2"/>
<feComposite in2="hardAlpha" operator="out"/>
<feColorMatrix type="matrix" values="0 0 0 0 0 0 0 0 0 0 0 0 0 0 0 0 0 0 0.25 0"/>
<feBlend mode="normal" in2="BackgroundImageFix" result="effect1_dropShadow_14_2"/>
<feBlend mode="normal" in="SourceGraphic" in2="effect1_dropShadow_14_2" result="shape"/>
</filter>
<filter id="filter1_i_14_2" x="114.808" y="68.7461" width="37.5555" height="58.6326" filterUnits="userSpaceOnUse" color-interpolation-filters="sRGB">
<feFlood flood-opacity="0" result="BackgroundImageFix"/>
<feBlend mode="normal" in="SourceGraphic" in2="BackgroundImageFix" result="shape"/>
<feColorMatrix in="SourceAlpha" type="matrix" values="0 0 0 0 0 0 0 0 0 0 0 0 0 0 0 0 0 0 127 0" result="hardAlpha"/>
<feOffset dy="4"/>
<feGaussianBlur stdDeviation="2"/>
<feComposite in2="hardAlpha" operator="arithmetic" k2="-1" k3="1"/>
<feColorMatrix type="matrix" values="0 0 0 0 0.221283 0 0 0 0 0.466667 0 0 0 0 0.217778 0 0 0 1 0"/>
<feBlend mode="normal" in2="shape" result="effect1_innerShadow_14_2"/>
</filter>
<filter id="filter2_i_14_2" x="40.6321" y="44.7238" width="39.4257" height="58.7059" filterUnits="userSpaceOnUse" color-interpolation-filters="sRGB">
<feFlood flood-opacity="0" result="BackgroundImageFix"/>
<feBlend mode="normal" in="SourceGraphic" in2="BackgroundImageFix" result="shape"/>
<feColorMatrix in="SourceAlpha" type="matrix" values="0 0 0 0 0 0 0 0 0 0 0 0 0 0 0 0 0 0 127 0" result="hardAlpha"/>
<feOffset dy="4"/>
<feGaussianBlur stdDeviation="2"/>
<feComposite in2="hardAlpha" operator="arithmetic" k2="-1" k3="1"/>
<feColorMatrix type="matrix" values="0 0 0 0 0.221283 0 0 0 0 0.466667 0 0 0 0 0.217778 0 0 0 1 0"/>
<feBlend mode="normal" in2="shape" result="effect1_innerShadow_14_2"/>
</filter>
<filter id="filter3_i_14_2" x="54.0005" y="120.976" width="53.0579" height="50.7234" filterUnits="userSpaceOnUse" color-interpolation-filters="sRGB">
<feFlood flood-opacity="0" result="BackgroundImageFix"/>
<feBlend mode="normal" in="SourceGraphic" in2="BackgroundImageFix" result="shape"/>
<feColorMatrix in="SourceAlpha" type="matrix" values="0 0 0 0 0 0 0 0 0 0 0 0 0 0 0 0 0 0 127 0" result="hardAlpha"/>
<feOffset dy="4"/>
<feGaussianBlur stdDeviation="2"/>
<feComposite in2="hardAlpha" operator="arithmetic" k2="-1" k3="1"/>
<feColorMatrix type="matrix" values="0 0 0 0 0.221283 0 0 0 0 0.466667 0 0 0 0 0.217778 0 0 0 1 0"/>
<feBlend mode="normal" in2="shape" result="effect1_innerShadow_14_2"/>
</filter>
</defs>
</svg>
