<svg width="77" height="68" viewBox="0 0 77 68" fill="none" xmlns="http://www.w3.org/2000/svg">
<path d="M35.7578 53L24.25 22.6719H24.0625C24.125 23.3125 24.1797 24.0938 24.2266 25.0156C24.2734 25.9375 24.3125 26.9453 24.3438 28.0391C24.375 29.1172 24.3906 30.2188 24.3906 31.3438V53H20.6875V18.7344H26.5938L37.4453 47.2344H37.6094L48.625 18.7344H54.4844V53H50.5469V31.0625C50.5469 30.0469 50.5625 29.0312 50.5938 28.0156C50.625 26.9844 50.6641 26.0156 50.7109 25.1094C50.7578 24.1875 50.8047 23.3906 50.8516 22.7188H50.6641L39.0156 53H35.7578Z" fill="#2F86EC"/>
</svg>
